<svg xmlns="http://www.w3.org/2000/svg" viewBox="0 0 500 500"><g id="freepik--background-complete--inject-18"><g style="opacity:0.4"><path d="M465,259.53a58.69,58.69,0,0,0-1.64-22.65c-2.07-7.23-5.91-14-11.37-18.5a30.17,30.17,0,0,0-4.27-3A26.54,26.54,0,0,0,433.32,212c-6.57.36-12.9,2.84-18.65,6.42-.35.22-.75.46-1.05.67l-.83.62c-.54.45-1.08.87-1.6,1.36a28.7,28.7,0,0,0-3,3.18,51.87,51.87,0,0,0-5.34,7.87,145.7,145.7,0,0,0-8.72,19.08c-5.23,13.58-9.83,28.06-15,42.71q-1.92,5.5-4,11c-1.37,3.7-2.85,7.4-4.39,11.12a163.29,163.29,0,0,1-11.06,22.44c-1.16,1.89-2.4,3.79-3.84,5.69-.72,1-1.51,1.92-2.34,2.86s-1.7,1.79-2.59,2.62a50,50,0,0,1-11.5,7.9c-7.92,4.06-15.82,6.24-23.44,8.5s-15.08,4.27-22.23,6.94a100.34,100.34,0,0,0-20.18,10,65.45,65.45,0,0,0-16.09,14.78C253,403.56,249.53,410,248,416.47a32.69,32.69,0,0,0-.93,9.45,21.93,21.93,0,0,0,2.08,8.21,18.34,18.34,0,0,0,11.1,9.62,24.81,24.81,0,0,0,7.62,1.21,34.09,34.09,0,0,0,8.21-1c.69-.17,1.39-.37,2.08-.58l2.48-.74q2.47-.78,4.88-1.66c3.22-1.2,6.38-2.52,9.51-4,6.27-3,12.53-6.79,19.48-10.82a175.7,175.7,0,0,1,22.76-11.41,137.13,137.13,0,0,1,25.27-7.25c1.07-.23,2.13-.37,3.2-.55l2.86-.46c1.58-.27,3.18-.58,4.79-.93,3.2-.71,6.39-1.58,9.5-2.6,12.49-4.11,23.74-10.62,32.3-19.81a76.88,76.88,0,0,0,11.34-15.52,79.75,79.75,0,0,0,4.41-9.1,98.93,98.93,0,0,0,3.54-9.9c1-3.42,1.91-6.94,2.64-10.55.35-1.69.72-3.91,1.1-5.91s.84-4.07,1.32-6.08a177,177,0,0,1,7.38-23.37c2.91-7.53,6.3-14.75,9.7-21.84,1.7-3.55,3.4-7.07,5-10.6A42,42,0,0,0,465,259.53Zm3,.32a31.4,31.4,0,0,1-1.34,6c-.58,1.93-1.27,3.79-1.94,5.64-1.36,3.71-2.77,7.34-4,11s-2.41,7.38-3.38,11.1-1.71,7.5-2.33,11.26a114.77,114.77,0,0,0-1.22,22.62c.07,1.87.21,3.74.35,5.59s.38,3.58.55,5.79a117.2,117.2,0,0,1,.38,12.75,92.87,92.87,0,0,1-4.32,26.08A81,81,0,0,1,438,402.16a89.87,89.87,0,0,1-20.26,19.12A102.07,102.07,0,0,1,393.3,433.6a109.21,109.21,0,0,1-13,3.66c-2.22.49-4.45.89-6.73,1.22l-5.51.81A122.71,122.71,0,0,0,348.08,444a157,157,0,0,0-19.7,8.26c-6.83,3.3-14.25,7.1-22.34,10.25a123.93,123.93,0,0,1-12.42,4.16c-2.12.58-4.24,1.09-6.37,1.57l-3.21.65c-1.21.22-2.43.42-3.66.57a53.27,53.27,0,0,1-15.12-.16,45.32,45.32,0,0,1-14.85-5,39.74,39.74,0,0,1-12.19-10.31,37.07,37.07,0,0,1-6.92-14.13,39.88,39.88,0,0,1-.8-14.89,48.05,48.05,0,0,1,3.78-13.41A74.59,74.59,0,0,1,249,390.48a93.18,93.18,0,0,1,9.3-8.39,106.82,106.82,0,0,1,10.21-7c14.07-8.5,29.49-13.37,43.64-19.52,7.05-3,13.84-6.48,19.17-10.73a33.42,33.42,0,0,0,6.55-6.93c.41-.61.8-1.24,1.16-1.87s.67-1.25,1-1.94c.67-1.38,1.3-2.9,1.9-4.5,1.21-3.19,2.26-6.67,3.24-10.22s1.92-7.19,2.88-10.88l2.82-11.16c.95-3.75,1.92-7.53,3-11.31,4.18-15.12,9-30.47,16.5-45.45a110.34,110.34,0,0,1,14-21.78c1.49-1.71,3-3.39,4.72-5a52.89,52.89,0,0,1,5.39-4.64,46.53,46.53,0,0,1,6.22-4,33.61,33.61,0,0,1,3.42-1.64l1.78-.7c.58-.21,1.08-.36,1.62-.54a62.41,62.41,0,0,1,13.22-2.78,47.8,47.8,0,0,1,13.66.61,39.3,39.3,0,0,1,12.7,4.82,36.37,36.37,0,0,1,5.39,3.91,38.63,38.63,0,0,1,4.57,4.66A50.66,50.66,0,0,1,467.2,236,81.6,81.6,0,0,1,468,259.85Z" style="fill:#ebebeb"></path><path d="M166.66,65.81a101.46,101.46,0,0,0,25.67-7.6c8.26-3.52,16.21-7.77,24.22-12.09,4-2.13,8-4.34,12.22-6.41a123.29,123.29,0,0,1,13-5.79,61.91,61.91,0,0,1,14.87-3.65,38.72,38.72,0,0,1,17.28,2c1.46.52,2.87,1.22,4.31,1.87s2.72,1.57,4.06,2.41,2.5,1.85,3.71,2.83,2.24,2.08,3.34,3.14a60.21,60.21,0,0,1,10.2,14.11,69.76,69.76,0,0,1,5.94,16,98.18,98.18,0,0,1,2.38,15.9,203.82,203.82,0,0,1-.54,29.44l-1.11,13.66c-.18,2.23-.3,4.43-.45,6.62l-.19,3.26-.13,3.22a123.37,123.37,0,0,0,.19,12.51,68.87,68.87,0,0,0,1.71,11.73,71.64,71.64,0,0,0,4.14,11.75c1.76,4,3.78,8,5.95,12.06,4.36,8.09,9.31,16.17,14.13,24.51l3.58,6.32c1.16,2.15,2.3,4.3,3.4,6.52a96.35,96.35,0,0,1,5.8,13.85A49.19,49.19,0,0,1,347,259.33a35.27,35.27,0,0,1-3.62,15.38,40.18,40.18,0,0,1-4.08,6.52l-2.39,2.91c-.82.92-1.67,1.75-2.5,2.63a78.78,78.78,0,0,1-11.13,9.29A75.23,75.23,0,0,1,310.4,303c-1.14.44-2.25,1-3.41,1.35l-3.48,1.18c-2.35.67-4.71,1.34-7.12,1.83A99.19,99.19,0,0,1,267.06,309a125.82,125.82,0,0,1-14.59-2.05c-4.84-.9-9.59-2.16-14.31-3.53-2.33-.74-4.7-1.42-7-2.25l-3.48-1.21-3.43-1.3q-6.87-2.67-13.49-5.83c-2.21-1.06-4.39-2.16-6.58-3.25s-4.32-2.3-6.45-3.49-4.26-2.39-6.34-3.66-4.18-2.52-6.22-3.85l-11.75-7.61c-1.91-1.23-3.85-2.4-5.77-3.61l-2.89-1.79-2.91-1.73A439.22,439.22,0,0,0,114,239.07c-8.26-3.67-16.6-7.18-25.42-11.17-4.4-2-8.92-4.19-13.59-6.8a91.12,91.12,0,0,1-14-9.65A71.11,71.11,0,0,1,48.72,198a81.82,81.82,0,0,1-8.36-15.2c-1.16-2.55-2-5.07-3-7.61-.45-1.26-.82-2.51-1.23-3.76S35.34,169,35,167.61l-1-4-.51-2-.39-2.06a72.78,72.78,0,0,1-1.23-8.32c-.13-1.41-.27-2.82-.36-4.23l0-4.33,0-2.16c0-.72.12-1.45.18-2.18l.43-4.34c.22-1.44.56-2.89.84-4.32l.46-2.14c.18-.71.42-1.41.63-2.11.44-1.4.87-2.79,1.34-4.17s1.15-2.67,1.75-4a55.42,55.42,0,0,1,9.36-14l1.36-1.53c.48-.48,1-.93,1.45-1.4,1-.92,1.94-1.86,2.94-2.73,2.07-1.61,4.07-3.33,6.23-4.7a88.55,88.55,0,0,1,13.11-7.31,127.28,127.28,0,0,1,13.52-5.14,224.45,224.45,0,0,1,27.27-6.63c2.28-.4,4.54-.87,6.82-1.2s4.52-.81,6.8-1.13,4.54-.69,6.8-1l6.79-1Zm.5,3c-9,1.3-17.89,2.93-26.68,5l-3.29.79-3.27.87c-2.18.56-4.34,1.22-6.49,1.87-4.32,1.26-8.56,2.74-12.75,4.3A146.65,146.65,0,0,0,90.78,93a108.41,108.41,0,0,0-10.62,7.18,75.94,75.94,0,0,0-9,8.29c-1.42,1.41-2.54,3-3.78,4.48l-1.61,2.34c-.26.38-.54.76-.79,1.15l-.68,1.21a38.5,38.5,0,0,0-4.1,9.76c-.19.84-.38,1.67-.61,2.48l-.38,2.54c-.06.42-.15.83-.18,1.26l-.06,1.3c0,.86-.11,1.7-.11,2.57l.09,2.63c0,.44,0,.86.05,1.31l.16,1.35.29,2.67.54,2.73A78,78,0,0,0,63,159.38c.27.92.66,1.9,1,2.87s.74,1.95,1.14,2.89c.82,1.83,1.58,3.73,2.47,5.42a54.58,54.58,0,0,0,5.63,9.31A42.14,42.14,0,0,0,80.24,187c5.22,4.24,12.4,8,20.49,11.77,4,1.91,8.19,3.82,12.46,5.79s8.53,4,12.82,6.15A409.24,409.24,0,0,1,175.91,240l3,2,3,2.08c2,1.4,3.94,2.76,5.88,4.19l11.31,8.35c3.61,2.64,7.26,5.2,10.93,7.73l5.57,3.68c1.87,1.19,3.73,2.39,5.62,3.56,3.79,2.27,7.58,4.57,11.47,6.63l2.9,1.58,2.93,1.49c1.95,1,3.94,1.91,5.92,2.86a133.9,133.9,0,0,0,24.48,8.6,90.51,90.51,0,0,0,12.61,2.05,66.52,66.52,0,0,0,12.62,0,56.85,56.85,0,0,0,23.75-7.39,57.63,57.63,0,0,0,10.08-7.57c.75-.74,1.56-1.46,2.27-2.21l2-2.29a31.11,31.11,0,0,0,3.22-5A23.74,23.74,0,0,0,338.09,259a35.3,35.3,0,0,0-2.58-12.13,76.55,76.55,0,0,0-6-11.79c-2.38-3.82-5-7.57-7.8-11.26-5.56-7.39-11.64-14.6-17.59-22.28-3-3.87-5.9-7.87-8.66-12.15a92.73,92.73,0,0,1-7.58-13.93c-4.39-10.42-6.09-20.95-6.82-31.09-1.32-20.22,1.26-38.83.89-55.51-.18-8.32-1.09-16-3.51-22.8a43.65,43.65,0,0,0-4.89-9.69,22.85,22.85,0,0,0-6.63-6.75,22.61,22.61,0,0,0-9.57-3.27,47.48,47.48,0,0,0-12,.26,115.67,115.67,0,0,0-12.8,2.59c-4.29,1.17-8.61,2.46-12.89,3.9-8.6,2.8-17.14,6-25.82,8.86A160.69,160.69,0,0,1,167.16,68.78Z" style="fill:#ebebeb"></path><path d="M208.2,406a64,64,0,0,1-8.81,1.6c-1.42.19-2.79.29-4.18.41s-2.74.16-4.08.18c-2.7.11-5.32,0-7.94-.05-10.41-.41-20.36-2-30.17-3.52l-3.48-.53-1.54-.22-1.57-.12c-1.06-.11-2.16-.07-3.24-.1s-2.21.09-3.34.18-2.25.2-3.4.38-2.28.35-3.44.58c-2.29.46-4.63,1-6.94,1.61-9.34,2.46-18.57,6.11-28.87,8.47a52.69,52.69,0,0,1-16.63,1.26,38.62,38.62,0,0,1-8.82-1.94,40,40,0,0,1-4.23-1.75c-.69-.34-1.4-.67-2.06-1l-2-1.15a52.13,52.13,0,0,1-7.21-5.37c-1.15-1-2.23-2.19-3.34-3.31s-2-2.41-3-3.65-1.73-2.54-2.58-3.86c-.43-.65-.77-1.32-1.12-2l-1.07-2-.52-1-.43-1-.86-2.07a38.74,38.74,0,0,1-1.51-4.18,68.26,68.26,0,0,1-3-16.93,82.76,82.76,0,0,1,.91-16.62A81.33,81.33,0,0,1,44,332.36c.5-1.26,1-2.52,1.55-3.77s1.17-2.46,1.76-3.68,1.22-2.42,1.9-3.59,1.31-2.36,2.06-3.51a103.5,103.5,0,0,1,21-24.07A82.86,82.86,0,0,1,85,284.87a52.47,52.47,0,0,1,14.24-5.47,34.19,34.19,0,0,1,15.48.36,58.23,58.23,0,0,1,14.5,6.16,154,154,0,0,1,25.22,18.86c3.87,3.49,7.5,7.12,11,10.84a7.84,7.84,0,0,0,1.08,1l.9.79c.7.47,1.23,1,2,1.45l1,.7c.36.22.73.42,1.07.66.66.47,1.5.85,2.2,1.3a92.5,92.5,0,0,0,10.65,5l6.37,2.51,3.41,1.33,3.56,1.48c2.41,1,4.95,2.19,7.53,3.46a74.57,74.57,0,0,1,8,4.77,50.15,50.15,0,0,1,8,6.82,42.21,42.21,0,0,1,6.66,9.25l.69,1.28.59,1.31c.38.88.78,1.76,1.12,2.66a43.38,43.38,0,0,1,1.57,5.36l.56,2.67.34,2.6a47.21,47.21,0,0,1,.33,5.09c0,.45,0,.79,0,1.3,0,.69,0,1.36-.08,2a24.38,24.38,0,0,1-.61,4.18c-.08.34-.16.69-.25,1l-.34,1.07c-.23.7-.49,1.39-.75,2.09a29.72,29.72,0,0,1-2.06,3.87c-.4.59-.81,1.16-1.23,1.72-.21.29-.43.58-.64.83l-.67.74c-.44.48-.9,1-1.36,1.42s-.91.81-1.38,1.21-.94.77-1.41,1.12l-1.36.94c-.46.29-.94.62-1.38.87l-1.33.73A45.08,45.08,0,0,1,208.2,406Z" style="fill:#ebebeb"></path><path d="M350.05,149.26a48.65,48.65,0,0,1-.69-9.77c.09-6.26,1.5-12,3.05-17.57a112.12,112.12,0,0,1,5.85-16.27,72.08,72.08,0,0,1,9.06-14.82,68,68,0,0,1,13-12.56A42.69,42.69,0,0,1,398.64,71a41.37,41.37,0,0,1,10.55-.22A33.83,33.83,0,0,1,419,73.41a34.31,34.31,0,0,1,7.71,4.78,68.44,68.44,0,0,1,6,5.6,22.92,22.92,0,0,1,2.6,3.43,26.19,26.19,0,0,1,1.84,3.94,43.62,43.62,0,0,1,2,8.68,74.22,74.22,0,0,1,.21,18.49A41.86,41.86,0,0,1,433.69,135a42.29,42.29,0,0,1-11.48,12.31c-4.58,3.34-10,5.73-15.23,7.91s-10.52,4.12-15.44,6.44-9.67,4.9-15.66,6.77a27.74,27.74,0,0,1-4.91,1.06,19.86,19.86,0,0,1-5.84-.09,15.29,15.29,0,0,1-7-3.42c-.48-.44-1-.92-1.42-1.39s-.83-1-1.23-1.47a24.44,24.44,0,0,1-1.86-2.95,30,30,0,0,1-1.35-2.91c-.34-.9-.72-1.89-1-2.76l-.39-1.37-.33-1.32C350.35,151,350.21,150.13,350.05,149.26Z" style="fill:#ebebeb"></path></g><circle cx="144.87" cy="426.84" r="19.67" style="fill:#ebebeb"></circle><path d="M152,415.17a4.43,4.43,0,0,1-.73,2.67,5.36,5.36,0,0,1-2.14,1.89,3.92,3.92,0,0,1-2.89.25,4.09,4.09,0,0,1-2.2-1.7,5.85,5.85,0,0,0,2.36,1.05,3.78,3.78,0,0,0,1.21,0,4,4,0,0,0,1.15-.37c.18-.09.37-.19.55-.3a5.88,5.88,0,0,0,.51-.36,5.22,5.22,0,0,0,.91-.85A6.85,6.85,0,0,0,152,415.17Z" style="fill:#c7c7c7"></path><path d="M145,416.3a2.81,2.81,0,0,1,.4-1.88,3.58,3.58,0,0,1,1.49-1.34,2.61,2.61,0,0,1,2.05-.15,2.58,2.58,0,0,1,1.47,1.25,4.45,4.45,0,0,0-1.63-.6,2.65,2.65,0,0,0-1.52.27A4.58,4.58,0,0,0,145,416.3Z" style="fill:#c7c7c7"></path><path d="M144.87,436.09a2.67,2.67,0,0,1,0,1.87,3.34,3.34,0,0,1-1.14,1.6,2.61,2.61,0,0,1-1.94.52,2.67,2.67,0,0,1-1.65-.91,4.88,4.88,0,0,0,1.68.24,2.54,2.54,0,0,0,1.39-.54,3.9,3.9,0,0,0,1-1.17A5,5,0,0,0,144.87,436.09Z" style="fill:#c7c7c7"></path><path d="M140.79,438.32a1.72,1.72,0,0,1-.13-1.32,2.24,2.24,0,0,1,.79-1.15,1.79,1.79,0,0,1,1.41-.35,1.71,1.71,0,0,1,1.12.72,3.84,3.84,0,0,0-1.15-.05,2,2,0,0,0-.86.36A3.43,3.43,0,0,0,140.79,438.32Z" style="fill:#c7c7c7"></path><path d="M137.78,418.39a1.8,1.8,0,0,1,.56,1.26,1.93,1.93,0,0,1-.56,1.39,1.7,1.7,0,0,1-1.44.5,2.1,2.1,0,0,1-1.23-.59,6.52,6.52,0,0,0,1.22-.09,1.46,1.46,0,0,0,.84-.42,2,2,0,0,0,.5-.86A3.68,3.68,0,0,0,137.78,418.39Z" style="fill:#c7c7c7"></path><path d="M135.34,420.3a1.11,1.11,0,0,1-.49-.87,1.38,1.38,0,0,1,.39-1,1.22,1.22,0,0,1,1.08-.35,1.3,1.3,0,0,1,.84.51,6,6,0,0,0-.83.17,1,1,0,0,0-.48.27,1.67,1.67,0,0,0-.33.5A3,3,0,0,0,135.34,420.3Z" style="fill:#c7c7c7"></path><path d="M151.45,439.13a1.75,1.75,0,0,1-1.09.85,1.93,1.93,0,0,1-1.48-.2,1.69,1.69,0,0,1-.83-1.28,2,2,0,0,1,.27-1.34,6.07,6.07,0,0,0,.38,1.16,1.47,1.47,0,0,0,.61.72,2,2,0,0,0,.95.27A3.83,3.83,0,0,0,151.45,439.13Z" style="fill:#c7c7c7"></path><path d="M149,437.23a1.14,1.14,0,0,1,.73-.69,1.35,1.35,0,0,1,1.09.13,1.23,1.23,0,0,1,.6,1,1.26,1.26,0,0,1-.29.94,6.37,6.37,0,0,0-.36-.77,1,1,0,0,0-.39-.39,1.33,1.33,0,0,0-.56-.2A2.89,2.89,0,0,0,149,437.23Z" style="fill:#c7c7c7"></path><path d="M158.19,425.28a1.77,1.77,0,0,1-.42,1.32,1.91,1.91,0,0,1-1.34.67,1.75,1.75,0,0,1-1.41-.59,2,2,0,0,1-.53-1.26,6.06,6.06,0,0,0,1,.75,1.52,1.52,0,0,0,.91.24,1.94,1.94,0,0,0,.94-.31A3.33,3.33,0,0,0,158.19,425.28Z" style="fill:#c7c7c7"></path><path d="M155.1,425.09a1.08,1.08,0,0,1,.21-1,1.35,1.35,0,0,1,1-.52,1.23,1.23,0,0,1,1,.46,1.26,1.26,0,0,1,.29.94,8,8,0,0,0-.73-.43,1.16,1.16,0,0,0-.54-.11,1.66,1.66,0,0,0-.58.15A3.26,3.26,0,0,0,155.1,425.09Z" style="fill:#c7c7c7"></path><path d="M132.13,429.74a1.78,1.78,0,0,1-.42,1.32,2,2,0,0,1-1.34.67,1.72,1.72,0,0,1-1.4-.59,2.1,2.1,0,0,1-.54-1.27,6.54,6.54,0,0,0,1,.75,1.57,1.57,0,0,0,.92.25,2,2,0,0,0,.94-.31A3.87,3.87,0,0,0,132.13,429.74Z" style="fill:#c7c7c7"></path><path d="M129,429.55a1.13,1.13,0,0,1,.21-1,1.36,1.36,0,0,1,1-.51,1.22,1.22,0,0,1,1,.45,1.29,1.29,0,0,1,.29.95,5.05,5.05,0,0,0-.73-.43.94.94,0,0,0-.54-.11,1.38,1.38,0,0,0-.57.15A2.74,2.74,0,0,0,129,429.55Z" style="fill:#c7c7c7"></path></g><g id="freepik--Stars--inject-18"><polygon points="425.57 77.06 425.66 70.29 430.15 75.32 435 73.81 432.63 78.12 434.91 80.51 431.38 80.87 431.32 85.44 427.44 82.22 424.29 84.84 424.64 80.98 420.04 78.85 425.57 77.06" style="fill:#2193B0"></polygon><polygon points="421.31 421.3 427.52 424 421.15 426.2 420.67 431.25 417.61 427.4 414.52 428.58 415.55 425.19 411.36 423.36 415.83 421.03 414.63 417.11 418.06 418.93 421.8 415.51 421.31 421.3" style="fill:#2193B0"></polygon><polygon points="112.15 434.73 106.03 443.16 104.84 432.87 97.41 430.47 104.21 427.15 103.46 422.12 108.21 424.8 112.34 419.1 114.37 426.58 120.66 426.08 116.78 430.63 120.68 437.38 112.15 434.73" style="fill:#2193B0"></polygon><polygon points="389.85 358.39 393.47 365.62 397.07 358.71 403.92 359.89 400.27 352.63 405.37 347.78 398.16 348.04 396.72 340.98 392.92 348.29 383.33 347.56 388.98 353.4 383.75 357.41 389.85 358.39" style="fill:#2193B0"></polygon><polygon points="222.44 76.89 224.18 73.97 220.91 74.26 219.78 71.56 218.03 74.5 215.16 73.79 216.88 76.29 214.71 78.4 218.16 78.09 220.07 81.66 220.86 78.33 223.47 79.28 222.44 76.89" style="fill:#2193B0"></polygon><polygon points="412.74 230.99 412.14 229.07 410.98 230.63 409.35 230.06 409.96 231.99 408.52 232.98 410.29 233.2 410.37 234.99 411.59 233.34 413.91 233.9 412.75 232.25 414.2 231.47 412.74 230.99" style="fill:#2193B0"></polygon><polygon points="438.71 343.03 440.2 341.69 438.31 341.28 438.15 339.56 436.65 340.91 435.15 340 435.68 341.71 434.09 342.51 436.08 342.95 436.53 345.3 437.56 343.56 438.87 344.56 438.71 343.03" style="fill:#2193B0"></polygon><polygon points="395.91 110.15 397.4 108.81 395.52 108.4 395.35 106.68 393.85 108.03 392.36 107.12 392.89 108.83 391.29 109.64 393.29 110.07 393.74 112.42 394.77 110.69 396.07 111.68 395.91 110.15" style="fill:#2193B0"></polygon><polygon points="130.94 385.7 131.01 383.69 129.4 384.77 128.05 383.69 127.98 385.71 126.29 386.15 127.89 386.96 127.36 388.67 129.06 387.53 131.06 388.84 130.53 386.89 132.15 386.65 130.94 385.7" style="fill:#2193B0"></polygon><polygon points="168.8 58.56 167.78 56.84 167.01 58.61 165.29 58.44 166.32 60.17 165.14 61.46 166.92 61.27 167.4 63 168.21 61.12 170.6 61.14 169.1 59.79 170.33 58.7 168.8 58.56" style="fill:#2193B0"></polygon><polygon points="73.96 329.49 76.86 323.88 70.85 324.78 68.45 319.9 65.53 325.54 60.13 324.55 63.6 328.99 59.8 333.13 66.16 332.18 70.11 338.58 71.2 332.33 76.14 333.8 73.96 329.49" style="fill:#2193B0"></polygon><polygon points="103.01 219.59 107.22 220.45 105.52 216.68 108.27 214.2 104.04 213.33 103.69 209.61 101.42 212.71 98 210.99 99.8 214.98 96.34 218.75 100.64 218.31 100.59 221.81 103.01 219.59" style="fill:#2193B0"></polygon></g><g id="freepik--Rocket--inject-18"><path d="M114.47,97.18c-.33-.39-19.53-9.3-36.92,4-16,12.2-21.53,35.13-19.41,35.68,2.6.67,9.72-10.27,23.39-16.28,4.85-2.13,12.56,0,12.56,0Z" style="fill:#2193B0"></path><path d="M94.1,120.55a30.28,30.28,0,0,0-7-1c3-6.31,8.64-18.08,12.3-25.7a35.29,35.29,0,0,1,15.09,3.28Z" style="opacity:0.1"></path><path d="M146.1,134.49c.33.39,6,20.79-10,35.77C121.49,184,98,185.76,97.77,183.57c-.24-2.67,11.72-7.91,19.89-20.41,2.9-4.43,2.06-12.39,2.06-12.39Z" style="fill:#2193B0"></path><path d="M146.85,150c-8.18,2.38-20.73,6-27.37,8a30.47,30.47,0,0,0,.24-7.21l26.38-16.28A35.11,35.11,0,0,1,146.85,150Z" style="opacity:0.1"></path><path d="M101.4,159.42,82.65,137.31s9.78-26.22,33-43.84c11.61-8.78,25.22-15.36,37.41-19.71,16.82-6,30.9-7.78,33.08-5.21s-1.85,16.17-10.54,31.79C169.33,111.65,160.61,124,150,134,128.87,154.07,101.4,159.42,101.4,159.42Z" style="fill:#c7c7c7"></path><path d="M147,124.55A16.72,16.72,0,1,1,148.89,101,16.73,16.73,0,0,1,147,124.55Z" style="fill:#a6a6a6"></path><path d="M147.86,123a16.72,16.72,0,1,1,1.94-23.56A16.71,16.71,0,0,1,147.86,123Z" style="fill:#2193B0"></path><path d="M144.56,119.08a11.6,11.6,0,1,1,1.33-16.35A11.6,11.6,0,0,1,144.56,119.08Z" style="fill:#fff"></path><path d="M144.56,119.08a11.43,11.43,0,0,1-3.71,2.12l-9.32-.76a11.64,11.64,0,0,1-3.32-2.69,11.83,11.83,0,0,1-1.68-2.65l20.12,1.65A11.76,11.76,0,0,1,144.56,119.08Z" style="fill:#ebebeb"></path><path d="M146.9,104.11l-18.57-1.51a11.43,11.43,0,0,1,1.21-1.2,11.6,11.6,0,0,1,16.35,1.33A13.15,13.15,0,0,1,146.9,104.11Z" style="fill:#ebebeb"></path><path d="M147.9,114.34l-22.21-1.81a7.12,7.12,0,0,1-.16-1l22.69,1.85C148.13,113.68,148,114,147.9,114.34Z" style="fill:#ebebeb"></path><path d="M175.62,100.34,153.08,73.76c16.82-6,30.9-7.78,33.08-5.21S184.31,84.72,175.62,100.34Z" style="fill:#2193B0"></path><path d="M159.71,76a1,1,0,0,1-1.38-.12,1,1,0,0,1,1.49-1.26A1,1,0,0,1,159.71,76Z" style="fill:#fff"></path><path d="M163.72,80.73a1,1,0,0,1-1.38-.11,1,1,0,1,1,1.38.11Z" style="fill:#fff"></path><path d="M167.73,85.46a1,1,0,0,1-1.38-.11,1,1,0,1,1,1.38.11Z" style="fill:#fff"></path><path d="M171.74,90.19a1,1,0,0,1-1.38-.11,1,1,0,1,1,1.38.11Z" style="fill:#fff"></path><path d="M175.75,94.92a1,1,0,1,1,.11-1.37A1,1,0,0,1,175.75,94.92Z" style="fill:#fff"></path><path d="M88.06,136.79a1,1,0,1,1,.11-1.38A1,1,0,0,1,88.06,136.79Z" style="fill:#a6a6a6"></path><path d="M92.07,141.52a1,1,0,1,1,.11-1.38A1,1,0,0,1,92.07,141.52Z" style="fill:#a6a6a6"></path><path d="M96.08,146.25a1,1,0,1,1,.11-1.38A1,1,0,0,1,96.08,146.25Z" style="fill:#a6a6a6"></path><path d="M100.09,151a1,1,0,1,1,.11-1.38A1,1,0,0,1,100.09,151Z" style="fill:#a6a6a6"></path><path d="M104.1,155.71a1,1,0,1,1,.11-1.38A1,1,0,0,1,104.1,155.71Z" style="fill:#a6a6a6"></path><path d="M185.1,67.89c-13,.93-35.45,8.8-59.12,27.35C108.5,109,95.75,132.93,89.8,145.74l-7.15-8.43s9.77-26.23,33-43.84c11.6-8.79,25.22-15.36,37.41-19.71C168.16,68.35,181,66.39,185.1,67.89Z" style="fill:#fff;opacity:0.2"></path><polygon points="93.02 163.02 77.78 145.04 83.7 138.56 100.39 158.23 93.02 163.02" style="fill:#2193B0"></polygon><polygon points="100.38 158.23 96.8 160.56 81.44 141.04 83.7 138.56 100.38 158.23" style="opacity:0.1"></polygon><path d="M89.67,159A61.69,61.69,0,0,0,71.8,177.12a48.82,48.82,0,0,0-7.64,24.38,44.35,44.35,0,0,0,1.59,13,46.34,46.34,0,0,0,5.39,12.22,53.18,53.18,0,0,0,8.69,10.53,68.49,68.49,0,0,0,11.06,8.39,68.91,68.91,0,0,1-12.11-7.15,55.91,55.91,0,0,1-10.29-9.88,50,50,0,0,1-10.83-26.9,56.82,56.82,0,0,1,5.57-29.26,73,73,0,0,1,18.53-23.79Z" style="fill:#2193B0;opacity:0.6000000000000001"></path><polygon points="77.58 169.85 74.8 170.36 74.18 173.3 73.56 170.36 70.78 169.85 73.54 169.17 74.18 166.4 74.81 169.17 77.58 169.85" style="fill:#fff"></polygon><polygon points="67.34 224.75 65.79 225.04 65.44 226.68 65.1 225.04 63.54 224.75 65.09 224.37 65.44 222.82 65.8 224.37 67.34 224.75" style="fill:#fff"></polygon><polygon points="66.51 210.53 64.96 210.81 64.61 212.45 64.26 210.81 62.71 210.53 64.25 210.15 64.61 208.6 64.96 210.15 66.51 210.53" style="fill:#fff"></polygon><polygon points="75.52 160.71 73.97 161 73.62 162.64 73.28 161 71.72 160.71 73.27 160.33 73.62 158.78 73.98 160.33 75.52 160.71" style="fill:#fff"></polygon><path d="M71,228.29a.45.45,0,0,0,0,.9A.45.45,0,0,0,71,228.29Z" style="fill:#fff"></path><path d="M83.88,158.52a.45.45,0,0,0,0,.9A.45.45,0,0,0,83.88,158.52Z" style="fill:#fff"></path><path d="M59.62,198.7a.45.45,0,0,0,0,.9A.45.45,0,0,0,59.62,198.7Z" style="fill:#fff"></path><path d="M70.22,226a.32.32,0,0,0,0,.64A.32.32,0,0,0,70.22,226Z" style="fill:#fff"></path><path d="M59.46,183a.32.32,0,0,0,0,.63A.32.32,0,0,0,59.46,183Z" style="fill:#fff"></path><path d="M62.71,215.56a.87.87,0,0,0,0,1.73A.87.87,0,0,0,62.71,215.56Z" style="fill:#fff"></path><path d="M63.54,180a.87.87,0,0,0,0,1.73A.87.87,0,0,0,63.54,180Z" style="fill:#fff"></path></g><g id="freepik--Cat--inject-18"><path d="M332.75,349s5.32,27.92-9.85,41.32-31.38,16.94-65.44,9.88-56.46-16-70.17-3.52c0,0-2.7,4.46,5.3,13.4s17.36,29.5-2,44.46c-22.82,17.64-57.52-1.18-63.64-34.81s19.11-74.9,70.36-72.62,66.53,12.53,76.17,12.82,11.11-8.11,11.11-8.11Z" style="fill:#37474f"></path><path d="M189.89,406.86c-17.9-1.79-35,2.51-46.49,17a76.09,76.09,0,0,0-9.2,14.75,55.7,55.7,0,0,1,8-15.71c11-15.37,29.86-20.33,47.72-16.08Z" style="fill:#263238"></path><path d="M195.67,391.78c-6.06-16.7-20.37-25.66-37.95-24.92a90.32,90.32,0,0,0-16.35,2.19,60.85,60.85,0,0,1,16.27-3.75c17.94-1.75,34.18,8.48,38,26.48Z" style="fill:#263238"></path><path d="M187.29,396.63c-15.79-10.72-34.32-9.87-50.49-.56-2,1.29-5.11,3.06-7,4.54-1.11.83-2.24,1.65-3.38,2.45,7.85-8,18-14.22,29.27-15.8,11.16-1.56,23.25,1.69,31.55,9.37Z" style="fill:#263238"></path><path d="M204.49,390.39c1.76-14.17-1.14-30.11-13-39.25a51.81,51.81,0,0,0-5.14-3.59,31.42,31.42,0,0,1,5.71,2.79c13.25,8.09,16.91,26,12.42,40.05Z" style="fill:#263238"></path><path d="M215.47,391.15c7.62-11.83,9.84-25.08,2.89-37.79-.78-1.72-2-3.39-2.89-5.05a38,38,0,0,1,3.74,4.55c8.63,12.05,6.35,27.88-3.74,38.29Z" style="fill:#263238"></path><path d="M229.31,393.79a38,38,0,0,0,12.1-19.5c2-7.62.43-15.53-3.13-22.52a26.64,26.64,0,0,1,5.07,23c-2.06,7.74-6.9,15.19-14,19Z" style="fill:#263238"></path><path d="M246.69,397.8c10.29-7.71,16.57-19.22,15.56-32.21a76,76,0,0,0-1.4-8.65,38.16,38.16,0,0,1,2,5.57c4,14-3.16,29.08-16.17,35.29Z" style="fill:#263238"></path><path d="M269.22,402.27c2.83-2.47,4-6.27,5.18-9.72,3.12-10.61,3.84-22.4-.9-32.67,6.95,9.42,6.37,22.66,2.37,33.19-1.48,3.43-3.23,7.34-6.65,9.2Z" style="fill:#263238"></path><path d="M293.51,403.38c2.34-13.47-.24-30-9.32-40.55a41.2,41.2,0,0,0-4.42-4.34,27.6,27.6,0,0,1,5.12,3.65c10.5,9.55,13.63,28.26,8.62,41.24Z" style="fill:#263238"></path><path d="M283.56,354.56c18.18,4.63,33.23,21.68,32.66,40.89-2.71-19.09-15.4-33.16-32.66-40.89Z" style="fill:#263238"></path><path d="M284.61,351.77c18.6-2.84,39.33,6.72,46.87,24.45-10.41-16.25-27.93-24.11-46.87-24.45Z" style="fill:#263238"></path><path d="M332.76,370.9c-18.06,6.13-47.44,15.75-52.49,15.35-5.43-.44-75-10.71-78.45-12.7-2.8-1.65-22.43-15-33.56-22.55a77.58,77.58,0,0,1,29.06-3.94c51.25,2.29,66.54,12.53,76.18,12.82s11.11-8.1,11.11-8.1L332.75,349A68,68,0,0,1,332.76,370.9Z" style="opacity:0.1"></path><path d="M184.77,219.69a83.73,83.73,0,0,0-9.53,0,26.08,26.08,0,0,0-6,2.29s-9.53-6.53-18.17-4.58-21.7,19.22-23.11,33.34-.53,48.51,7.41,63,62.27,53.81,70.21,57.34,56.46,10.05,75.15,9.7,70.55-32.73,83.79-45.69c8.47-8.29,12.7-49.22,12.88-57.51s-12.18-35.1-12.18-35.1Z" style="fill:#c7c7c7"></path><path d="M377.41,277.55c-.18,8.3-4.41,49.22-12.88,57.5-13.24,13-65.1,45.35-83.79,45.7s-67.22-6.17-75.15-9.71-62.28-42.86-70.22-57.32c-4.65-8.48-6.87-23.8-7.64-37.88,1.25,8.69,11.65,30.33,15,35s57.05,44.2,67.87,46.65,63.53,6.84,73.63,6.77,69.73-31.34,75-36.41S375.52,294.46,377.41,277.55Z" style="opacity:0.1"></path><path d="M187.18,216.92s-15.29-24.22-14.58-35.28,32.69-47.51,45.16-57.15,41.63-14.82,51.51-14.82,38,10.84,38,10.84,3.24-7.57,6.18-24c1.37-7.7,52.69,19.75,50.33,65.15,0,0,12,44.15,12.7,50.06s-15.75,27.09-15.75,27.09a198.57,198.57,0,0,1-35.12,10.33c-21.12,4.23-45.27,7.07-76.14.25C204.23,239.38,187.18,216.92,187.18,216.92Z" style="fill:#2193B0"></path><path d="M200.39,141.44c.2-10.6-8.62-36.59-10.86-40s29.8-10.49,61.12,10.63Z" style="fill:#2193B0"></path><path d="M206.41,137.92s-2.15-21.52-9.91-31.66c-1.3-1.7,22.23-.93,42.43,13.21,0,0-7.92,4.21-13.44,7.3,0,0-4.14-2-7.34-2.18s-8.29,1.55-8.29,1.55,6,1.22,7.59,2.24A9.68,9.68,0,0,1,220,131a18.11,18.11,0,0,0-3.89-1.53,9.56,9.56,0,0,0-3.31.52,6.19,6.19,0,0,1,4.34,2.19S208.76,136.55,206.41,137.92Z" style="opacity:0.1"></path><path d="M311.43,123.33s3.93-13.12,5-21.88c.26-2.12,28.49,14.29,27.34,43.93,0,0-10.72-8.82-16.19-12,0,0,.27-5.91-1.23-8.73s-5.56-6.35-5.56-6.35,2,5.82,1.94,7.67a9.44,9.44,0,0,1-1,3.53,17.94,17.94,0,0,0-.66-4.12A9.51,9.51,0,0,0,319,122.8a6.17,6.17,0,0,1,.32,4.85A21.38,21.38,0,0,0,311.43,123.33Z" style="opacity:0.1"></path><path d="M360.77,238.8a199,199,0,0,1-35.12,10.34c-21.12,4.22-45.26,7.06-76.14.24-43.87-9.7-61.24-31.06-62.28-32.39,3.8,4,31.66,20.32,38.55,22.6s45.69,8.11,62.12,6,60.34-12.87,63.34-15.16S361.45,210,362.7,205,358,160.16,358,160.16s6.74-36.84-33.17-61.86c15.36,8,40.64,31.18,39,63.35,0,0,12,44.15,12.7,50.07S360.77,238.8,360.77,238.8Z" style="opacity:0.1"></path><path d="M216,158.26c-8.32-2-14.55,5.22-16.94,14.93-1.94,7.86,1,17.11,9,19.07s15.25-6.25,17.07-13.63S225.06,160.48,216,158.26Z" style="fill:#263238"></path><path d="M216.32,160.49c-7.82-1.93-13.68,4.91-15.92,14-1.82,7.39,1,16.07,8.47,17.92s14.33-5.87,16-12.81S224.82,162.58,216.32,160.49Z" style="fill:#fff"></path><path d="M217.67,164.3c-6.12-1.51-10.71,3.84-12.47,11-1.42,5.79.76,12.59,6.64,14s11.22-4.6,12.55-10S224.32,165.93,217.67,164.3Z" style="fill:#263238"></path><path d="M279.35,171.17c11.13-.56,17.16,7.71,17.65,17.69.4,8.09-5.8,16.68-16.48,17.21s-17.78-8.85-18.16-16.44S267.25,171.77,279.35,171.17Z" style="fill:#263238"></path><path d="M278.38,173.31c10.46-.52,16.13,7.25,16.59,16.64.38,7.6-5.45,15.67-15.49,16.17s-16.71-8.32-17.07-15.45S267,173.88,278.38,173.31Z" style="fill:#fff"></path><path d="M278.85,175.22c8.55-.42,13.17,5.92,13.55,13.58A12.83,12.83,0,0,1,279.75,202c-8.2.41-13.64-6.78-13.93-12.61A13.5,13.5,0,0,1,278.85,175.22Z" style="fill:#263238"></path><path d="M243.75,185.67c-.27,1-7.12,4.08-7.85,4s-6.63-4.86-6.66-5.94,5.92-.66,7.43-.45S244,184.65,243.75,185.67Z" style="fill:#263238"></path><path d="M223.52,190.57c.84,1.63,1.69,3.24,2.67,4.75a11.37,11.37,0,0,0,1.62,2,1.74,1.74,0,0,0,.83.48,1.72,1.72,0,0,0,.87-.28,6.69,6.69,0,0,0,1.7-1.7,18.4,18.4,0,0,0,1.38-2.22,39.15,39.15,0,0,0,2.24-4.83l1.15-3,.66,3.2a38.68,38.68,0,0,0,1.83,6.23,16,16,0,0,0,1.41,2.84,5,5,0,0,0,2,2l.3.1.3,0a4.21,4.21,0,0,0,.71,0,5.55,5.55,0,0,0,1.45-.38,12.47,12.47,0,0,0,2.76-1.62,32.42,32.42,0,0,0,4.79-4.59,24.74,24.74,0,0,1-4.23,5.26,12.85,12.85,0,0,1-2.83,2,5.06,5.06,0,0,1-3.73.52,6.17,6.17,0,0,1-2.89-2.4,17.83,17.83,0,0,1-1.69-3.08,36.37,36.37,0,0,1-2.06-6.55l1.81.15a35.7,35.7,0,0,1-2.46,5.05,21.46,21.46,0,0,1-1.64,2.34,7.2,7.2,0,0,1-2.32,1.95,2.91,2.91,0,0,1-1.75.31,2.86,2.86,0,0,1-1.45-1,11.08,11.08,0,0,1-1.54-2.42A29.88,29.88,0,0,1,223.52,190.57Z" style="fill:#263238"></path><path d="M195.25,178.14c-4.61-.86-9.24-1.56-13.88-2.16s-9.3-1.13-14-1.45c-2.33-.22-4.66-.35-7-.5s-4.67-.22-7-.28c-4.68-.18-9.36-.12-14.06-.1,2.34-.19,4.68-.39,7-.49s4.69-.15,7-.14c4.7,0,9.39.23,14.08.57s9.35.93,14,1.68c2.32.37,4.63.79,6.93,1.24S193,177.5,195.25,178.14Z" style="fill:#263238"></path><path d="M193.06,180.64c-2.11-.13-4.22-.26-6.33-.34s-4.22-.19-6.33-.25c-4.21-.13-8.43-.23-12.65-.18-2.11,0-4.22,0-6.33,0l-6.33.2-3.16.12-3.16.19c-2.11.07-4.21.31-6.33.41,4.18-.66,8.39-1.17,12.61-1.44s8.46-.43,12.7-.46,8.47.13,12.69.41S188.88,180,193.06,180.64Z" style="fill:#263238"></path><path d="M194,183.4c-1.76.11-3.52.21-5.28.36s-3.51.24-5.26.41c-3.5.32-7,.62-10.5,1s-7,.8-10.47,1.25-7,1-10.47,1.43q2.56-.63,5.16-1.18c1.73-.33,3.46-.67,5.2-1,3.47-.62,7-1.07,10.48-1.47s7-.66,10.55-.8S190.45,183.22,194,183.4Z" style="fill:#263238"></path><path d="M300.8,202.16c2.91,0,5.82.23,8.72.43s5.8.54,8.69.89c5.79.7,11.54,1.65,17.26,2.76s11.4,2.46,17,4.06c2.81.77,5.59,1.64,8.36,2.52,1.39.43,2.76.93,4.13,1.42l4.11,1.48c-5.58-1.65-11.14-3.34-16.79-4.72-2.81-.73-5.64-1.39-8.46-2.06s-5.68-1.25-8.53-1.78c-5.69-1.18-11.42-2.12-17.17-3S306.6,202.65,300.8,202.16Z" style="fill:#263238"></path><path d="M302.56,205.88c5.21.7,10.37,1.69,15.5,2.8s10.21,2.43,15.28,3.83,10.06,3,15,4.81,9.81,3.76,14.59,5.91c-2.48-.86-4.9-1.86-7.39-2.68l-3.71-1.31L348.1,218c-2.48-.83-5-1.6-7.48-2.4s-5-1.5-7.54-2.19c-5-1.47-10.1-2.78-15.18-4q-3.82-.94-7.65-1.81C307.7,207,305.13,206.42,302.56,205.88Z" style="fill:#263238"></path><path d="M300.54,208.88c4.26,1,8.44,2.32,12.59,3.71s8.24,2.95,12.31,4.56,8.08,3.38,12,5.27c2,.93,3.94,1.92,5.9,2.89s3.87,2,5.78,3.1c-4-1.77-8-3.61-12-5.33s-8-3.44-12.07-5.06-8.12-3.21-12.2-4.75c-2-.78-4.1-1.51-6.16-2.24S302.61,209.57,300.54,208.88Z" style="fill:#263238"></path><path d="M208.76,147.15c3.32-4.31,10-5.61,14.79-3.27a55.39,55.39,0,0,0-14.79,3.27Z" style="fill:#263238"></path><path d="M300,162.93A55.83,55.83,0,0,0,287,155c5.33-.63,11.19,2.76,12.92,7.91Z" style="fill:#263238"></path><path d="M241.24,234a32.66,32.66,0,0,1-5-9.36.32.32,0,0,0-.59,0c-.25.74-.95,2.81-1,3.13-.08-.2-.15-.4-.22-.6q-.35-1-.6-2.07a25.69,25.69,0,0,1-.67-4.26,24.94,24.94,0,0,1,.05-4.32c.14-1.45.46-2.87.72-4.31,0-.06-.11-.09-.13,0a17.28,17.28,0,0,0-1.29,4.36,23.65,23.65,0,0,0-.36,4.35,22.14,22.14,0,0,0,.47,4.37c.16.75.35,1.49.58,2.22a6.45,6.45,0,0,0,.9,2c.3.39.92,0,1-.36,0-.24.81-3.12.94-3.54a21.86,21.86,0,0,0,5,8.51C241.12,234.27,241.33,234.12,241.24,234Z" style="fill:#263238"></path><path d="M369.06,246c-29.33,13.15-85.5,22.23-127.8,10.76s-62.66-35.28-63.37-38.09,1.76-6,4.83-6.93h0c1.42,1.8,2.91,3.54,4.45,5.21,13.76,14.94,40.95,32,84.53,36,42.84,4,84.18-12,94.59-16.33C370.35,236.27,374.58,243.5,369.06,246Z" style="fill:#263238"></path><path d="M266.19,353.78a60.5,60.5,0,0,0,36.18,3c-11.33,5.64-25.86,4.22-36.18-3Z" style="fill:#263238"></path><path d="M293.49,292.83c2.83-7,7.65-14.08,14.84-17.29,9.61-3,22.65,1.42,31.68,5a76.11,76.11,0,0,1,16.05,8.87,117.58,117.58,0,0,0-34-12.22c-4.65-.72-9.66-1.47-14.07.37-6.38,3.21-11,9.11-14.47,15.26Z" style="fill:#263238"></path><path d="M339.63,281.19a18.31,18.31,0,0,1,13,2,111.6,111.6,0,0,0-13-2Z" style="fill:#263238"></path><path d="M302.88,288c10.61,7.17,15.09,10.84,14.36,22.83-.64,10.42-29.11,43.64-47.41,49.39a12.4,12.4,0,0,1-9.63-.69Z" style="fill:#c7c7c7"></path><path d="M287,285.21c-12.54,3.35-38.41,50.35-36.81,61.72,1.27,9.06,7.62,14,15.57,12.76,9.47-1.51,47.49-44.21,47.52-54.35C313.32,294.05,300.49,281.61,287,285.21Z" style="fill:#455a64"></path><path d="M313.29,305.3l-28.44-19.16a9,9,0,0,1,2.17-.93,8.67,8.67,0,0,1,.88-.21,6.68,6.68,0,0,1,.73-.14l24.09,16.2c.07.26.13.51.18.78A15.11,15.11,0,0,1,313.29,305.3Z" style="fill:#263238"></path><path d="M312.9,301.84,287.9,285a6.68,6.68,0,0,1,.73-.14l.78-.12,23.07,15.53a7.19,7.19,0,0,1,.24.79C312.79,301.32,312.85,301.57,312.9,301.84Z" style="fill:#37474f"></path><path d="M310.47,312.69c-.08.16-.17.31-.27.47-.42.73-.88,1.49-1.38,2.27l-32.27-21.72c.6-.7,1.19-1.37,1.77-2l.37-.39Z" style="fill:#263238"></path><path d="M310.73,312.24c-.08.15-.17.3-.26.45s-.17.31-.27.47l-31.88-21.45.37-.39c.13-.13.25-.27.38-.39Z" style="fill:#37474f"></path><path d="M304.43,321.79l-.32.43c-.52.69-1.05,1.4-1.6,2.11L270,302.43l1.52-2.18.31-.42Z" style="fill:#263238"></path><path d="M304.74,321.36c-.11.14-.21.29-.31.43l-.32.43-32.63-22,.31-.42.3-.44Z" style="fill:#37474f"></path><path d="M297.66,330.38c-.11.14-.22.28-.35.42-.55.68-1.14,1.36-1.72,2l-31.47-21.19c.45-.76.9-1.52,1.36-2.27.1-.15.18-.3.28-.46Z" style="fill:#263238"></path><path d="M298,330l-.34.41c-.11.14-.22.28-.35.42l-31.83-21.42c.1-.15.18-.3.28-.46l.29-.45Z" style="fill:#37474f"></path><path d="M290.45,338.69c-.13.12-.25.26-.37.39-.6.66-1.21,1.32-1.82,2l-29.41-19.8c.4-.78.81-1.56,1.23-2.36.09-.15.16-.31.26-.46Z" style="fill:#263238"></path><path d="M290.8,338.29c-.11.14-.23.26-.35.4s-.25.26-.37.39l-30-20.19c.09-.15.16-.31.26-.46a3.67,3.67,0,0,1,.25-.48Z" style="fill:#37474f"></path><path d="M282.8,346.68l-.39.38q-1,1-2,1.89L254.2,331.27c.33-.82.68-1.64,1.06-2.48.07-.17.15-.33.21-.5Z" style="fill:#263238"></path><path d="M283.18,346.31l-.38.37-.39.38-27.15-18.27c.07-.17.15-.33.21-.5s.15-.31.22-.48Z" style="fill:#37474f"></path><path d="M274.54,354.27l-.43.36c-.77.61-1.51,1.2-2.2,1.71L250.6,342c.18-.85.42-1.76.7-2.72l.16-.53Z" style="fill:#263238"></path><path d="M275,353.92l-.42.35-.43.36L251.3,339.28l.16-.53c0-.17.11-.35.17-.53Z" style="fill:#37474f"></path><path d="M263.31,359.88c-.34,0-.67,0-1,0a12.39,12.39,0,0,1-10.25-6.9c-.16-.3-.31-.62-.45-.94Z" style="fill:#263238"></path><path d="M264.23,359.86c-.31,0-.62,0-.92,0s-.67,0-1,0l-10.25-6.9c-.16-.3-.31-.62-.45-.94s-.25-.59-.37-.89Z" style="fill:#37474f"></path><path d="M304.74,289.25c19.05,10,14.58,25.5,3.08,39.66a107.52,107.52,0,0,1-10.55,11.4c3.14-4.11,6.35-8.14,9.3-12.33,10.41-14.75,15-26.67-1.83-38.73Z" style="fill:#263238"></path><path d="M302.79,333.22a9.32,9.32,0,0,1-3.42,7.09,49.75,49.75,0,0,1,3.42-7.09Z" style="fill:#263238"></path><path d="M260.2,359.51c7.65,2.59,15.35-1.77,21.62-5.85.95-.59,1.85-1.27,2.79-1.89a35.42,35.42,0,0,1-11.15,7.63c-4.14,1.71-9.21,2.43-13.26.11Z" style="fill:#263238"></path><path d="M284.19,354.56a7.49,7.49,0,0,1-6.64,2.38,17.86,17.86,0,0,1,1.66-.7c1.63-.59,3.26-1.23,5-1.68Z" style="fill:#263238"></path><path d="M134.2,302.59a60.36,60.36,0,0,0,33.59-13.77c-7.53,10.17-21.12,15.5-33.59,13.77Z" style="fill:#263238"></path><path d="M136.79,229.48c8.75-16.23,20.59-16.56,34.81-6.63a46.48,46.48,0,0,1,9.94,9.35,79.37,79.37,0,0,0-10.82-8c-14.55-8.83-23.23-8.91-33.93,5.29Z" style="fill:#263238"></path><path d="M111.76,225.52c12.17-4,17.81-5.3,26.84,2.62,7.85,6.88,16.71,49.72,10.06,67.71a12.44,12.44,0,0,1-6.44,7.2Z" style="fill:#c7c7c7"></path><path d="M99.86,236.38c-5,12,16.32,61.19,26.29,66.88,7.94,4.54,15.75,2.55,19.62-4.51,4.6-8.41-5.91-64.61-13.91-70.84C123,221,105.25,223.52,99.86,236.38Z" style="fill:#455a64"></path><path d="M131.83,227.89,99.27,238.66a9.12,9.12,0,0,1,.59-2.29c.11-.28.24-.55.37-.82a5.09,5.09,0,0,1,.34-.66l27.56-9.14c.25.1.48.21.72.33A15,15,0,0,1,131.83,227.89Z" style="fill:#263238"></path><path d="M128.85,226.08l-28.62,9.47a5.09,5.09,0,0,1,.34-.66c.12-.24.25-.48.38-.69l26.41-8.75a8.15,8.15,0,0,1,.77.3C128.38,225.85,128.61,226,128.85,226.08Z" style="fill:#37474f"></path><path d="M136,234.65c.07.15.14.32.2.49.33.78.64,1.6.95,2.48l-36.92,12.24c-.19-.91-.36-1.78-.49-2.63,0-.17-.06-.35-.1-.53Z" style="fill:#263238"></path><path d="M135.75,234.16c.07.16.13.32.2.49s.14.32.2.49L99.69,247.23c0-.17-.06-.35-.1-.53s0-.36-.07-.54Z" style="fill:#37474f"></path><path d="M139.45,245c0,.16.09.34.14.51.24.84.47,1.69.69,2.56L103.05,260.4c-.28-.85-.55-1.7-.8-2.53,0-.18-.09-.34-.14-.51Z" style="fill:#263238"></path><path d="M139.3,244.48l.15.51c0,.16.09.34.14.51l-37.34,12.37c0-.18-.09-.34-.14-.51s-.11-.34-.17-.5Z" style="fill:#37474f"></path><path d="M142.1,255.6a4.37,4.37,0,0,1,.12.52c.2.87.38,1.74.56,2.62l-36,11.93c-.34-.82-.65-1.65-1-2.47-.06-.17-.13-.33-.19-.5Z" style="fill:#263238"></path><path d="M142,255.08c0,.16.07.34.11.52a4.37,4.37,0,0,1,.12.52L105.8,268.2c-.06-.17-.13-.33-.19-.5s-.12-.34-.19-.51Z" style="fill:#37474f"></path><path d="M144.26,266.38a4.51,4.51,0,0,0,.09.53c.15.88.3,1.77.44,2.65l-33.66,11.15c-.37-.8-.74-1.6-1.11-2.42-.07-.16-.15-.32-.21-.49Z" style="fill:#263238"></path><path d="M144.16,265.86c0,.17.06.35.1.52a4.51,4.51,0,0,0,.09.53L110,278.29c-.07-.16-.15-.32-.21-.49a3.64,3.64,0,0,1-.22-.49Z" style="fill:#37474f"></path><path d="M145.9,277.33l.06.54c.12.92.22,1.81.31,2.69l-30.05,10c-.45-.76-.89-1.55-1.32-2.36-.09-.16-.17-.32-.26-.47Z" style="fill:#263238"></path><path d="M145.84,276.79l.06.54.06.54L114.9,288.16c-.09-.16-.17-.32-.26-.47l-.25-.47Z" style="fill:#37474f"></path><path d="M146.85,288.5c0,.2,0,.38,0,.56,0,1,0,1.92,0,2.79l-24.39,8.08q-.84-1-1.71-2.22c-.11-.15-.22-.29-.32-.45Z" style="fill:#263238"></path><path d="M146.83,288c0,.19,0,.37,0,.55s0,.38,0,.56l-26.09,8.65c-.11-.15-.22-.29-.32-.45a3.76,3.76,0,0,1-.32-.46Z" style="fill:#37474f"></path><path d="M144.42,300.81a9.78,9.78,0,0,1-.65.77A12.37,12.37,0,0,1,132,305.47c-.33-.06-.68-.14-1-.22Z" style="fill:#263238"></path><path d="M145,300.08c-.17.25-.36.5-.54.73a9.78,9.78,0,0,1-.65.77L132,305.47c-.33-.06-.68-.14-1-.22s-.62-.16-.93-.25Z" style="fill:#37474f"></path><path d="M174.32,225.75a9,9,0,0,1,7.22,2.41,39.49,39.49,0,0,1-7.22-2.41Z" style="fill:#263238"></path><path d="M138,227.62c9.2,6,12.09,27.83,12.22,38.24-.45-1.66-.81-3.33-1.18-5-1.07-4.81-2.18-10.12-3.38-14.85a100.23,100.23,0,0,0-2.84-9.67c-1.18-3.12-2.38-6.35-4.82-8.73Z" style="fill:#263238"></path><path d="M148.74,255.92a9.3,9.3,0,0,1,3.16,7.21,51.32,51.32,0,0,1-3.16-7.21Z" style="fill:#263238"></path><path d="M145,301.53c4.67-5.51,5.16-12.87,6-19.73.59,6.84-.25,15.17-6,19.73Z" style="fill:#263238"></path><path d="M152.84,283.92a7.46,7.46,0,0,1-2.52,6.6c.15-.61.36-1.16.55-1.71.61-1.62,1.19-3.28,2-4.89Z" style="fill:#263238"></path><path d="M179.42,239c-1.24,8.46.12,43.64,12.86,46.12s13.16-16.26,27-29.71c0,0-8.87-10.36-20.43-14.85S179.42,239,179.42,239Z" style="fill:#c7c7c7"></path><path d="M212.27,264c-.58.9-1.14,1.81-1.67,2.71a63.69,63.69,0,0,0-23-9.29,46.92,46.92,0,0,0-8-.76c-.1-1.09-.19-2.16-.26-3.2C185.42,253.45,197.83,254.77,212.27,264Z" style="fill:#2193B0"></path><path d="M215.57,259.45c-.67.85-1.32,1.71-1.93,2.57-15.29-9.49-28.39-10.71-34.44-10.66-.06-1.11-.1-2.19-.12-3.21C185.6,248.06,199.4,249.31,215.57,259.45Z" style="fill:#2193B0"></path><path d="M179.1,243.18c.92,10.37,2.4,51.62,20.73,38.65,2.68-2.22,4.57-5.42,6.4-8.58,3.54-6.38,7.08-13.35,13.05-17.87a39.13,39.13,0,0,0-6.64,8.77c-4.6,7.37-7.31,19.38-16.87,21.86-17.2,3.5-17.1-31.92-16.67-42.83Z" style="fill:#263238"></path><path d="M213.64,262a46.81,46.81,0,0,1,5.22-3.47,7.74,7.74,0,0,1-5.22,3.47Z" style="fill:#263238"></path><path d="M187.29,271.73c1.29,4.44,2.06,11.58,6.63,13.77-5.4-.93-6.8-9.22-6.63-13.77Z" style="fill:#263238"></path><path d="M193.84,270.66c.62,4.58.33,11.76,4.53,14.59-5.2-1.71-5.37-10.11-4.53-14.59Z" style="fill:#263238"></path><path d="M243.22,261c-8,3-38,21.4-34,33.72s23.77,3.47,42.55,8a110.41,110.41,0,0,0-.44-24C249.63,266.39,243.22,261,243.22,261Z" style="fill:#c7c7c7"></path><path d="M237.41,301.23c-1.07,0-2.14,0-3.19.06a63.69,63.69,0,0,0-3.13-24.17,46.27,46.27,0,0,0-3.26-7.37h0l1.35-.91.28-.18,1-.7C233.47,273.19,238.29,284.45,237.41,301.23Z" style="fill:#2193B0"></path><path d="M243,301.38c-1.07-.07-2.14-.11-3.21-.13.64-17.52-4.56-29.25-7.53-34.44h0c.27-.18.54-.34.8-.49.47-.3.94-.58,1.39-.84l.56-.34h0C238.24,270.67,243.72,283,243,301.38Z" style="fill:#2193B0"></path><path d="M239.39,262.72c-7.77,5.4-38.68,23.82-27.26,34.71,4.06,3.8,10,3.61,15.35,3.7,7.49-.13,15.15-.23,22.56,1.13-7.53-.61-15-.09-22.52.38-5.56.21-12.3.41-16.74-3.8-13.23-13.33,18.71-31.09,28.61-36.12Z" style="fill:#263238"></path><path d="M242.57,301.74a43.76,43.76,0,0,1,6,1.88,7.77,7.77,0,0,1-6-1.88Z" style="fill:#263238"></path><path d="M218.47,283.81c-3.25,3.28-9.1,7.44-8.78,12.5-1.83-5.17,4.72-10.43,8.78-12.5Z" style="fill:#263238"></path><path d="M222.6,289c-3.69,2.77-10.1,6-10.53,11.07-1-5.38,6.21-9.62,10.53-11.07Z" style="fill:#263238"></path><path d="M187.18,216.92C171.41,199.8,161,175.76,160.6,153.54s6-45.16,20.11-62.81,57.42-49.74,121.85-37,96.9,61.84,98.31,109.24c1.12,37.68-34.58,73.69-34.58,73.69-10.4,4.33-51.74,20.29-94.58,16.33C228.13,248.93,200.94,231.86,187.18,216.92Z" style="fill:#ebebeb;opacity:0.2"></path><path d="M187.18,216.92c-14.35-15.78-24.15-36.06-26.31-57.37-1.71-21.28,3-43.36,14.41-61.5s30.45-30.63,50.15-38.57C264.5,43.9,313.61,49,349.06,71.48c32,20,52.55,56.81,52.19,94.59-.45,16.19-7,31.59-15.26,45.26a156.1,156.1,0,0,1-19.5,25.48,234.34,234.34,0,0,1-45.81,13.5c-44.62,8.83-100.9.62-133.5-33.39Zm0,0c32.66,33.89,88.87,41.94,133.42,33a240.79,240.79,0,0,0,45.5-13.48,141.8,141.8,0,0,0,10.32-12.22c12.63-16.87,23.38-36.67,24.06-58.16.41-43.05-26.89-83.85-65.89-101.53-43.49-20.19-97.83-18.15-137,10.77-26.92,18.67-39.1,52.28-36.56,84.24,2.09,21.29,11.84,41.58,26.13,57.39Z" style="fill:#263238"></path><g style="opacity:0.6000000000000001"><path d="M191.35,113.33c-8.54,8.82-3.15,34.12,7.87,33.35,9-.64,14.46-10.6,15.57-17.28s-1.09-15.8-7.6-18.63C201.68,108.37,194.48,110.1,191.35,113.33Z" style="fill:#fff"></path><path d="M212.28,97c-3.07,2.3-.94,9.35,2.84,10.67s7.74-3.21,7.09-6.17S215.06,94.93,212.28,97Z" style="fill:#fff"></path><path d="M357.88,226.87c2.95.59,5.94-4.32,4.74-7.21s-4.79-2.07-6.17-.14S355.23,226.34,357.88,226.87Z" style="fill:#fff"></path></g></g></svg>
